<?xml version="1.0" standalone="no"?>
<!DOCTYPE svg PUBLIC "-//W3C//DTD SVG 20010904//EN"
 "http://www.w3.org/TR/2001/REC-SVG-20010904/DTD/svg10.dtd">
<svg version="1.0" xmlns="http://www.w3.org/2000/svg"
 width="258.000000pt" height="97.000000pt" viewBox="0 0 258.000000 97.000000"
 preserveAspectRatio="xMidYMid meet">

<g transform="translate(0.000000,97.000000) scale(0.100000,-0.100000)"
fill="#000000" stroke="none">
<path d="M0 485 l0 -485 1290 0 1290 0 0 485 0 485 -1290 0 -1290 0 0 -485z
m194 289 c9 -8 16 -19 16 -23 0 -13 -24 -31 -42 -31 -14 0 -18 8 -18 35 0 39
17 46 44 19z m63 -23 c1 -25 -1 -30 -12 -21 -10 8 -14 7 -18 -2 -3 -7 -6 1 -6
18 -2 55 33 60 36 5z m533 -206 l0 -235 -235 0 -235 0 0 235 0 235 235 0 235
0 0 -235z m330 136 c49 -26 80 -75 80 -127 0 -54 -11 -82 -45 -116 -60 -60
-153 -59 -219 2 -36 34 -40 43 -44 96 -3 50 0 65 20 94 45 66 137 89 208 51z
m300 -89 c0 -126 11 -152 64 -152 55 0 65 21 68 145 3 102 4 110 23 110 19 0
20 -8 23 -102 3 -127 -10 -167 -64 -189 -49 -21 -93 -11 -130 27 -27 28 -29
35 -32 134 -5 118 -1 135 28 135 19 0 20 -6 20 -108z m581 88 c23 -19 23 -20
5 -34 -16 -13 -20 -13 -33 0 -28 27 -73 11 -73 -27 0 -11 16 -23 45 -35 26 -9
55 -28 65 -42 24 -30 26 -79 5 -109 -21 -30 -82 -48 -117 -34 -32 12 -63 55
-54 76 8 23 32 18 50 -10 29 -45 92 -25 84 27 -2 16 -19 31 -53 50 -80 43 -97
87 -50 133 31 32 92 34 126 5z m414 -5 c0 -17 -8 -20 -57 -23 l-58 -3 0 -34 0
-35 55 0 c48 0 55 -2 55 -20 0 -18 -7 -20 -55 -20 l-55 0 0 -50 0 -50 60 0
c53 0 60 -2 60 -20 0 -18 -7 -20 -85 -20 l-85 0 0 150 0 151 83 -3 c74 -3 82
-5 82 -23z m-388 -352 c-218 -2 -576 -2 -795 0 -218 1 -39 2 398 2 437 0 616
-1 397 -2z"/>
<path d="M160 756 c0 -17 5 -26 16 -26 10 0 14 7 12 22 -5 32 -28 35 -28 4z"/>
<path d="M230 770 c0 -5 5 -10 11 -10 5 0 7 5 4 10 -3 6 -8 10 -11 10 -2 0 -4
-4 -4 -10z"/>
<path d="M350 550 l0 -210 210 0 210 0 -2 208 -3 207 -207 3 -208 2 0 -210z
m140 90 l0 -60 70 0 70 0 0 61 c0 60 0 60 28 57 l27 -3 0 -145 0 -145 -27 -3
c-27 -3 -27 -3 -30 65 l-3 68 -65 0 -65 0 -3 -67 c-3 -68 -3 -68 -32 -68 l-30
0 0 150 0 150 30 0 30 0 0 -60z"/>
<path d="M983 640 c-64 -38 -66 -132 -5 -180 30 -24 98 -26 130 -4 26 18 52
65 52 94 0 34 -28 78 -60 95 -39 20 -79 19 -117 -5z"/>
</g>
</svg>
